<?xml version="1.0" standalone="no"?>
<!DOCTYPE svg PUBLIC "-//W3C//DTD SVG 20010904//EN"
 "http://www.w3.org/TR/2001/REC-SVG-20010904/DTD/svg10.dtd">
<svg version="1.0" xmlns="http://www.w3.org/2000/svg"
 width="242.000000pt" height="87.000000pt" viewBox="0 0 242.000000 87.000000"
 preserveAspectRatio="xMidYMid meet">

<g transform="translate(0.000000,87.000000) scale(0.100000,-0.100000)"
fill="#000000" stroke="none">
<path d="M0 435 l0 -435 1210 0 1210 0 0 435 0 435 -1210 0 -1210 0 0 -435z
m685 281 c62 -29 117 -83 147 -144 33 -67 33 -197 0 -263 -72 -148 -252 -215
-400 -150 -66 30 -144 113 -166 177 -58 172 44 359 221 404 55 13 140 3 198
-24z m379 -58 c15 -25 -1 -34 -23 -14 -32 29 -57 -5 -40 -52 8 -22 39 -31 39
-12 0 6 7 10 15 10 8 0 15 -4 15 -8 0 -16 -25 -32 -50 -32 -14 0 -31 5 -38 12
-18 18 -15 84 4 103 20 20 63 16 78 -7z m112 -45 c20 -53 21 -63 9 -63 -9 0
-18 7 -21 15 -4 8 -15 15 -25 15 -11 0 -22 -7 -25 -15 -4 -8 -13 -15 -21 -15
-8 0 -13 6 -10 13 2 6 13 36 23 65 12 33 24 52 33 50 8 -2 25 -31 37 -65z
m118 51 c29 -28 17 -58 -27 -69 -17 -5 -27 -14 -27 -26 0 -10 -7 -19 -15 -19
-12 0 -15 14 -15 65 l0 65 34 0 c19 0 42 -7 50 -16z m116 1 c18 -21 3 -32 -22
-16 -13 8 -24 9 -30 3 -6 -6 4 -17 26 -30 37 -22 44 -40 24 -60 -17 -17 -63
-15 -78 3 -17 21 -4 32 20 17 26 -16 40 -15 40 2 0 8 -11 17 -25 20 -13 3 -29
15 -35 25 -21 39 51 71 80 36z m52 -37 c3 -49 5 -53 31 -56 42 -5 32 -22 -13
-22 l-40 0 0 65 c0 78 18 88 22 13z m149 42 c14 -8 19 -21 19 -53 0 -50 -13
-67 -51 -67 -35 0 -53 23 -53 67 0 52 40 77 85 53z m133 -12 c15 -24 -3 -37
-19 -14 -21 28 -45 13 -45 -29 0 -40 21 -55 45 -35 20 17 32 5 15 -15 -18 -22
-67 -19 -80 4 -15 29 -12 77 6 96 20 20 63 16 78 -7z m56 -4 l0 -27 21 27 c11
14 27 26 35 26 19 0 18 -10 -7 -36 l-21 -23 21 -29 c25 -36 26 -42 6 -42 -8 0
-19 9 -25 20 -6 11 -15 20 -20 20 -6 0 -10 -9 -10 -20 0 -11 -7 -20 -15 -20
-12 0 -15 14 -15 65 0 51 3 65 15 65 10 0 15 -10 15 -26z m-756 -190 c9 -3 16
-12 16 -20 0 -17 -12 -18 -27 -3 -12 12 -33 5 -33 -11 0 -4 14 -13 31 -19 25
-9 30 -15 27 -38 -2 -17 -10 -29 -21 -31 -30 -6 -67 7 -67 23 0 18 5 19 30 3
15 -10 22 -10 31 -1 9 9 3 16 -25 29 -65 32 -30 94 38 68z m130 -16 c44 -63
-26 -145 -78 -92 -21 20 -21 78 0 98 22 23 60 20 78 -6z m116 13 c0 -5 -12
-11 -27 -13 -34 -4 -38 -32 -5 -36 30 -5 28 -22 -3 -22 -20 0 -25 -5 -25 -25
0 -14 -4 -25 -10 -25 -6 0 -10 28 -10 65 l0 65 40 0 c22 0 40 -4 40 -9z m110
0 c0 -5 -9 -11 -20 -14 -17 -4 -20 -14 -20 -56 0 -28 -4 -51 -10 -51 -5 0 -10
23 -10 51 0 42 -3 52 -20 56 -37 10 -20 23 30 23 28 0 50 -4 50 -9z m46 -33
l7 -43 12 39 c15 52 32 56 41 12 7 -39 24 -39 24 -1 0 23 16 42 26 32 3 -3 0
-33 -7 -66 -14 -71 -36 -80 -52 -21 l-10 35 -10 -37 c-5 -21 -15 -38 -23 -38
-7 0 -17 17 -23 38 -21 86 -22 92 -7 92 9 0 17 -16 22 -42z m209 -10 c10 -29
20 -59 23 -65 6 -18 -25 -16 -32 2 -7 20 -36 19 -51 -1 -6 -9 -16 -15 -22 -13
-13 5 35 129 51 129 7 0 20 -24 31 -52z m116 42 c21 -12 25 -40 8 -57 -8 -8
-8 -17 0 -31 14 -27 14 -32 -2 -32 -8 0 -19 12 -25 26 -13 28 -32 24 -32 -7 0
-10 -7 -19 -15 -19 -12 0 -15 13 -15 58 0 32 3 62 7 65 10 10 52 8 74 -3z
m124 0 c4 -6 -7 -10 -24 -10 -37 0 -43 -27 -8 -32 27 -4 26 -22 -3 -26 -32 -5
-24 -32 10 -32 17 0 30 -4 30 -10 0 -5 -20 -10 -45 -10 l-45 0 0 65 0 65 39 0
c22 0 43 -4 46 -10z"/>
<path d="M340 561 c0 -21 6 -30 23 -35 40 -10 345 -7 352 5 4 5 4 21 1 35 l-6
24 -185 0 -185 0 0 -29z"/>
<path d="M400 471 c0 -17 6 -31 16 -35 28 -11 292 -7 299 5 4 5 4 21 1 35 l-6
24 -155 0 -155 0 0 -29z"/>
<path d="M480 381 c0 -17 6 -31 16 -35 27 -11 212 -7 219 5 4 5 4 21 1 35 -6
24 -8 24 -121 24 l-115 0 0 -29z"/>
<path d="M711 283 c-1 -20 -7 -22 -68 -26 l-68 -3 68 -2 c69 -2 87 8 74 40 -3
7 -6 3 -6 -9z"/>
<path d="M1130 616 c0 -9 5 -16 10 -16 6 0 10 4 10 9 0 6 -4 13 -10 16 -5 3
-10 -1 -10 -9z"/>
<path d="M1240 640 c0 -13 7 -20 20 -20 24 0 27 25 4 34 -23 9 -24 8 -24 -14z"/>
<path d="M1562 648 c-17 -17 -15 -53 4 -69 14 -11 18 -10 30 6 17 23 17 30 4
56 -12 22 -21 24 -38 7z"/>
<path d="M1114 436 c-3 -8 -4 -27 -2 -43 4 -40 42 -40 46 0 5 42 -31 77 -44
43z"/>
<path d="M1616 411 c-4 -7 -5 -15 -2 -18 9 -9 19 4 14 18 -4 11 -6 11 -12 0z"/>
<path d="M1727 444 c-14 -15 -6 -34 14 -34 14 0 19 5 17 17 -3 18 -20 27 -31
17z"/>
</g>
</svg>
